<svg viewBox="0 0 152 83" fill="none" xmlns="http://www.w3.org/2000/svg">
  <path
    d="M0 76.6289L10 70.8554L10 82.4024L0 76.6289ZM58.5876 65.6289L57.5876 65.6289L58.5876 65.6289ZM58.5876 12.6289L59.5876 12.6289L58.5876 12.6289ZM69.5876 1.62893L69.5876 2.62893L69.5876 1.62893ZM9 75.6289L47.5876 75.6289L47.5876 77.6289L9 77.6289L9 75.6289ZM57.5876 65.6289L57.5876 12.6289L59.5876 12.6289L59.5876 65.6289L57.5876 65.6289ZM69.5876 0.62893L152 0.628931L152 2.62893L69.5876 2.62893L69.5876 0.62893ZM57.5876 12.6289C57.5876 6.00151 62.9602 0.628923 69.5876 0.62893L69.5876 2.62893C64.0648 2.62892 59.5876 7.10607 59.5876 12.6289L57.5876 12.6289ZM47.5876 75.6289C53.1105 75.6289 57.5876 71.1517 57.5876 65.6289L59.5876 65.6289C59.5876 72.2563 54.215 77.6289 47.5876 77.6289L47.5876 75.6289Z"
    fill="url(#paint0_linear_3646_12586)"
  />
  <defs>
    <linearGradient
      id="paint0_linear_3646_12586"
      x1="0%"
      y1="63.0309"
      x2="-3.03239e-06"
      y2="63.0309"
      gradientUnits="userSpaceOnUse"
    >
      <stop stop-color="#00E9EA" offset="0%" />
      <stop stop-color="#1F80F0" offset="100%" />
      <animate
        attributeName="x1"
        dur="7s"
        repeatCount="indefinite"
        values="126.598;100;50;45;45;50;100;126.598"
        keyTimes="0;0.1;0.3;0.4;0.6;0.7;0.95;1"
        keySplines="0.42 0 0.58 1;0.42 0 0.58 1;0.42 0 0.58 1;0.42 0 0.58 1;0.42 0 0.58 1;0.42 0 0.58 1;0.42 0 0.58 1;"
      />
    </linearGradient>
  </defs>
</svg>
